<?xml version="1.0" standalone="no"?>
<!DOCTYPE svg PUBLIC "-//W3C//DTD SVG 20010904//EN"
 "http://www.w3.org/TR/2001/REC-SVG-20010904/DTD/svg10.dtd">
<svg version="1.0" xmlns="http://www.w3.org/2000/svg"
 width="512.000000pt" height="512.000000pt" viewBox="0 0 512.000000 512.000000"
 preserveAspectRatio="xMidYMid meet">

<g transform="translate(0.000000,512.000000) scale(0.100000,-0.100000)"
fill="#000000" stroke="none">
<path d="M593 5096 l-28 -24 0 -2512 0 -2512 28 -24 28 -24 344 0 c224 0 352
4 368 11 13 6 38 35 56 65 18 30 37 52 42 48 5 -3 18 -23 29 -44 11 -21 31
-48 46 -59 l27 -21 1483 0 1483 0 28 24 28 24 0 2512 0 2512 -28 24 -28 24
-1939 0 -1939 0 -28 -24z m3797 -2536 l0 -2400 -1394 0 -1394 0 -57 97 c-62
106 -77 122 -115 123 -41 0 -66 -25 -125 -125 l-56 -95 -259 0 -260 0 0 2400
0 2400 1830 0 1830 0 0 -2400z"/>
<path d="M1245 4625 c-16 -15 -25 -35 -25 -55 0 -38 19 -58 279 -299 161 -150
188 -171 217 -171 39 0 47 6 261 207 84 79 156 143 162 143 5 0 94 -79 197
-175 163 -152 192 -175 220 -175 39 0 50 8 257 202 86 82 162 148 168 148 5 0
78 -64 162 -143 214 -201 222 -207 261 -207 29 0 56 21 217 171 260 241 279
261 279 299 0 41 -39 80 -80 80 -34 0 -25 8 -277 -229 l-142 -133 -188 176
c-103 97 -199 179 -212 183 -13 3 -34 2 -47 -3 -14 -5 -107 -87 -209 -182
l-185 -173 -185 173 c-102 95 -196 177 -209 182 -13 5 -34 6 -47 3 -13 -4
-109 -86 -212 -183 l-188 -176 -142 133 c-252 237 -243 229 -277 229 -19 0
-40 -9 -55 -25z"/>
<path d="M1245 3905 l-25 -24 0 -1420 c0 -781 3 -1427 6 -1436 18 -46 -19 -45
1334 -45 1353 0 1316 -1 1334 45 3 9 6 655 6 1436 l0 1420 -25 24 -24 25
-1291 0 -1291 0 -24 -25z m2495 -1450 l0 -1315 -79 0 -80 0 -6 48 c-33 233
-126 424 -289 588 -178 179 -396 283 -633 302 -317 26 -596 -78 -819 -302
-163 -164 -256 -355 -289 -588 l-6 -48 -80 0 -79 0 0 1315 0 1315 1180 0 1180
0 0 -1315z"/>
<path d="M2194 3596 c-40 -18 -42 -26 -94 -296 -22 -118 -43 -223 -46 -232 -5
-16 -24 -18 -215 -18 -235 0 -269 -7 -286 -57 -14 -39 7 -90 42 -103 15 -6
114 -10 221 -10 l194 0 0 -78 c0 -155 58 -290 171 -397 110 -103 236 -155 379
-155 143 0 269 52 379 155 113 107 171 242 171 397 l0 78 194 0 c107 0 206 4
221 10 35 13 56 64 42 103 -17 50 -51 57 -286 57 -191 0 -210 2 -215 18 -3 9
-24 114 -46 232 -52 273 -54 278 -96 296 -48 20 -684 20 -730 0z m665 -328
c18 -95 35 -183 38 -195 l5 -23 -342 0 -342 0 5 23 c3 12 20 100 38 195 l33
172 266 0 266 0 33 -172z m86 -431 c15 -100 -33 -232 -114 -310 -224 -218
-595 -100 -652 207 -6 33 -8 79 -4 103 l6 43 379 0 379 0 6 -43z"/>
<path d="M1271 809 c-33 -13 -50 -38 -50 -74 0 -37 17 -61 53 -75 18 -7 339
-10 962 -10 1023 0 991 -2 1011 57 15 42 -6 87 -47 102 -42 14 -1893 15 -1929
0z"/>
<path d="M3474 810 c-28 -11 -54 -48 -54 -77 0 -12 11 -35 24 -50 l24 -28 163
-3 c90 -2 178 -1 196 3 43 8 73 41 73 79 -1 38 -18 62 -54 76 -33 12 -342 12
-372 0z"/>
</g>
</svg>
