<?xml version="1.0" encoding="utf-8"?>
<svg xmlns="http://www.w3.org/2000/svg" viewBox="0 0 500 500">
  <g transform="matrix(0.1, 0, 0, -0.1, -6.000003, 506)" fill="#000000" stroke="none">
    <path d="M593 5096 l-28 -24 0 -2512 0 -2512 28 -24 28 -24 344 0 c224 0 352 4 368 11 13 6 38 35 56 65 18 30 37 52 42 48 5 -3 18 -23 29 -44 11 -21 31 -48 46 -59 l27 -21 1483 0 1483 0 28 24 28 24 0 2512 0 2512 -28 24 -28 24 -1939 0 -1939 0 -28 -24z m3797 -2536 l0 -2400 -1394 0 -1394 0 -57 97 c-62 106 -77 122 -115 123 -41 0 -66 -25 -125 -125 l-56 -95 -259 0 -260 0 0 2400 0 2400 1830 0 1830 0 0 -2400z"/>
    <path d="M1245 3905 l-25 -24 0 -1420 c0 -781 3 -1427 6 -1436 18 -46 -19 -45 1334 -45 1353 0 1316 -1 1334 45 3 9 6 655 6 1436 l0 1420 -25 24 -24 25 -1291 0 -1291 0 -24 -25z m2495 -1450 l0 -1315 -79 0 -80 0 -6 48 c-33 233 -126 424 -289 588 -178 179 -396 283 -633 302 -317 26 -596 -78 -819 -302 -163 -164 -256 -355 -289 -588 l-6 -48 -80 0 -79 0 0 1315 0 1315 1180 0 1180 0 0 -1315z"/>
    <path d="M 2194 3596 C 2154 3578 2152 3570 2100 3300 C 2078 3182 2057 3077 2054 3068 C 2049 3052 2030 3050 1839 3050 C 1604 3050 1570 3043 1553 2993 C 1539 2954 1560 2903 1595 2890 C 1610 2884 1709 2880 1816 2880 L 2010 2880 L 2010 2802 C 2010 2647 2068 2512 2181 2405 C 2291 2302 2417 2250 2560 2250 C 2703 2250 2829 2302 2939 2405 C 3052 2512 3110 2647 3110 2802 L 3110 2880 L 3304 2880 C 3411 2880 3510 2884 3525 2890 C 3560 2903 3581 2954 3567 2993 C 3550 3043 3516 3050 3281 3050 C 3090 3050 3071 3052 3066 3068 C 3063 3077 3042 3182 3020 3300 C 2968 3573 2966 3578 2924 3596 C 2876 3616 2240 3616 2194 3596 Z"/>
  </g>
</svg>